<svg width="314" height="81" viewBox="0 0 314 81" fill="none" xmlns="http://www.w3.org/2000/svg">
<path d="M116.508 22.82L118.668 32.486L116.886 33.026C116.022 30.938 114.978 29.3 113.754 28.112C112.566 26.888 111.288 26.024 109.92 25.52C108.552 24.98 107.22 24.71 105.924 24.71V56.57L106.464 57.11H109.434V59H94.044V57.11H97.014L97.554 56.57V24.71C96.258 24.71 94.926 24.98 93.558 25.52C92.226 26.024 90.948 26.888 89.724 28.112C88.5 29.3 87.456 30.938 86.592 33.026L84.81 32.486L86.97 22.82H116.508ZM143.843 59V57.11H146.813L147.353 56.57V25.25L146.813 24.71H143.843V22.82H159.233V24.71H156.263L155.723 25.25V56.57L156.263 57.11H159.233V59H143.843ZM121.163 59V57.11H124.133L124.673 56.57V25.25L124.133 24.71H121.163V22.82H136.553V24.71H133.583L133.043 25.25V56.57L133.583 57.11H136.553V59H121.163ZM131.153 41.18V39.29H151.133V41.18H131.153ZM193.342 22.82L195.502 32.486L193.72 33.026C192.856 30.938 191.812 29.3 190.588 28.112C189.4 26.888 188.122 26.024 186.754 25.52C185.386 24.98 184.054 24.71 182.758 24.71V56.57L183.298 57.11H186.268V59H170.878V57.11H173.848L174.388 56.57V24.71C173.092 24.71 171.76 24.98 170.392 25.52C169.06 26.024 167.782 26.888 166.558 28.112C165.334 29.3 164.29 30.938 163.426 33.026L161.644 32.486L163.804 22.82H193.342ZM211.389 59L199.671 24.71H196.701V22.82H212.793V24.71H209.823L209.283 25.25L216.465 47.39H216.735L222.675 30.218L220.731 24.71H217.869V22.82H234.285V24.71H230.613L230.073 25.25L237.687 47.39H237.957L244.275 25.25L243.735 24.71H239.145V22.82H250.269V24.71H247.137L237.309 59H233.259L224.295 34.16H224.025L215.439 59H211.389Z" fill="#EDE1A1"/>
<circle cx="36.5" cy="42.5" r="36.5" fill="#FADE3C"/>
<circle cx="22.0225" cy="29.5436" r="11.3766" fill="white"/>
<path fill-rule="evenodd" clip-rule="evenodd" d="M57.5371 28.2379L55.3605 31.7585C52.6362 36.1648 59.6688 42.4601 60.0277 47.8118C60.3856 53.1474 57.9212 60.5494 59.0654 63.2025C49.3922 54.5033 38.725 55.3689 32.8923 56.5691C26.8074 57.8213 19.0881 59.3279 16.7833 62.6931L15.7645 64.7311C15.7645 64.7311 15.2551 64.8328 16.2739 61.1648C17.2928 57.4968 19.3305 56.0706 19.3305 56.0706C22.5475 51.3734 22.5723 50.2413 31.2238 48.4609C37.4939 47.1706 44.597 47.9979 52.1682 52.1234C51.9916 50.9058 51.8542 49.6487 51.7682 48.3658C51.3437 42.0362 52.1411 34.6409 56.0998 28.2379L58.2764 24.7174L57.5371 28.2379Z" fill="white"/>
</svg>
